# xmcd
#
# Track frame offsets:
#	150
#	5663
#	37695
#	44817
#	73373
#	79405
#	120766
#	133454
#	155829
#	164038
#	197937
#
# Disc length: 2688 seconds
#
# Revision: 1
# Processed by: cddbd v1.5.2PL0 Copyright (c) Steve Scherf et al.
# Submitted via: audiograbber 1.83.01
#
DISCID=a60a7e0b
DTITLE=Grateful Dead - 70-10-10A Colden Auditorium, Queens College, Queens NY
DYEAR=1900
DGENRE=
TTITLE0=Tuning
TTITLE1=Truckin'
TTITLE2=Tuning
TTITLE3=Deep Elem Blues
TTITLE4=Tuning
TTITLE5=Hard To Handle
TTITLE6=Tuning
TTITLE7=Sugar Magnolia
TTITLE8=Tuning
TTITLE9=Candyman
TTITLE10=Tuning
EXTD=
EXTT0=
EXTT1=
EXTT2=
EXTT3=
EXTT4=
EXTT5=
EXTT6=
EXTT7=
EXTT8=
EXTT9=
EXTT10=
PLAYORDER=
